<svg width="36" height="36" viewBox="0 0 36 36" fill="none" xmlns="http://www.w3.org/2000/svg">
<path d="M18 36C27.9411 36 36 27.9411 36 18C36 8.05887 27.9411 0 18 0C8.05887 0 0 8.05887 0 18C0 27.9411 8.05887 36 18 36Z" fill="#DD2E44"/>
<path d="M18 31.5C25.4558 31.5 31.5 25.4558 31.5 18C31.5 10.5442 25.4558 4.5 18 4.5C10.5442 4.5 4.5 10.5442 4.5 18C4.5 25.4558 10.5442 31.5 18 31.5Z" fill="white"/>
<path d="M18 28C23.5228 28 28 23.5228 28 18C28 12.4772 23.5228 8 18 8C12.4772 8 8 12.4772 8 18C8 23.5228 12.4772 28 18 28Z" fill="#DD2E44"/>
<path d="M18 24C21.3137 24 24 21.3137 24 18C24 14.6863 21.3137 12 18 12C14.6863 12 12 14.6863 12 18C12 21.3137 14.6863 24 18 24Z" fill="white"/>
<path d="M18 21C19.6569 21 21 19.6569 21 18C21 16.3431 19.6569 15 18 15C16.3431 15 15 16.3431 15 18C15 19.6569 16.3431 21 18 21Z" fill="#DD2E44"/>
<path opacity="0.2" d="M18.2401 18.282L31.3841 30.036C31.3841 30.036 28.7371 33.412 23.4941 35.145L17.5791 18.42L18.2401 18.282Z" fill="black"/>
<path d="M18.2936 19C18.0386 19 17.7846 18.903 17.5896 18.708C17.2006 18.319 17.2006 17.69 17.5896 17.301L18.1526 16.738C18.5416 16.349 19.1706 16.349 19.5606 16.738C19.9486 17.127 19.9486 17.756 19.5606 18.145L18.9966 18.708C18.8026 18.903 18.5486 19 18.2936 19Z" fill="#FFAC33"/>
<path d="M24.016 6.981C23.613 9.06 24.016 11.672 24.016 11.672L31.07 4.284C31.361 2.83 30.542 0.351998 29.352 0.0459975C28.162 -0.260002 25.273 0.848998 24.016 6.981ZM29.019 11.984C26.94 12.387 24.328 11.984 24.328 11.984L31.716 4.93C33.17 4.639 35.648 5.458 35.954 6.648C36.26 7.838 35.151 10.727 29.019 11.984Z" fill="#55ACEE"/>
<path d="M32.7981 4.48501L21.1761 17.587C20.8141 17.949 19.5031 18.469 18.6661 17.633C17.8301 16.797 18.2471 15.553 18.6091 15.19L31.8151 3.50101C31.8151 3.50101 32.4911 2.86601 32.9741 3.34901C33.4571 3.83201 32.7981 4.48501 32.7981 4.48501Z" fill="#3A87C2"/>
</svg>
