<svg width="35" height="23" viewBox="0 0 35 23" fill="none" xmlns="http://www.w3.org/2000/svg">
<path d="M15.3939 22.0721C15.8958 22.4233 16.5167 22.5608 17.12 22.4543C17.7233 22.3478 18.2596 22.006 18.6109 21.5041C18.6714 21.4181 18.7142 21.321 18.7371 21.2184C18.7599 21.1157 18.7622 21.0096 18.7439 20.9061C18.7256 20.8026 18.687 20.7037 18.6304 20.6152C18.5737 20.5266 18.5002 20.4501 18.4139 20.3901L16.5639 18.4411L20.7859 21.3961C20.9471 21.5094 21.1292 21.5898 21.3216 21.6325C21.514 21.6753 21.7129 21.6797 21.907 21.6454C22.1011 21.6112 22.2865 21.5389 22.4526 21.4328C22.6187 21.3266 22.7622 21.1888 22.8749 21.0271C22.9878 20.8657 23.0679 20.6836 23.1104 20.4913C23.153 20.2989 23.1573 20.1001 23.123 19.9061C23.0888 19.7122 23.0166 19.5268 22.9107 19.3607C22.8049 19.1946 22.6673 19.051 22.5059 18.9381L18.9099 15.6331L24.2849 19.3961C24.4461 19.5094 24.6282 19.5898 24.8206 19.6325C25.013 19.6753 25.2119 19.6797 25.406 19.6454C25.6001 19.6112 25.7855 19.5389 25.9516 19.4328C26.1177 19.3266 26.2612 19.1888 26.3739 19.0271C26.4868 18.8657 26.5669 18.6836 26.6094 18.4913C26.652 18.2989 26.6563 18.1001 26.622 17.9061C26.5878 17.7122 26.5156 17.5268 26.4097 17.3607C26.3039 17.1946 26.1663 17.051 26.0049 16.9381L21.2389 12.8651L27.1029 16.9701C27.2641 17.0834 27.4462 17.1638 27.6386 17.2065C27.831 17.2493 28.0299 17.2537 28.224 17.2194C28.4181 17.1852 28.6035 17.1129 28.7696 17.0068C28.9357 16.9006 29.0792 16.7628 29.1919 16.6011C29.3048 16.4397 29.3849 16.2576 29.4274 16.0653C29.47 15.8729 29.4743 15.6741 29.44 15.4801C29.4058 15.2862 29.3336 15.1008 29.2277 14.9347C29.1219 14.7686 28.9843 14.625 28.8229 14.5121L3.69889 2.93506L0.231888 8.45606C-0.157112 9.05606 -0.0511119 9.86906 0.507888 10.3471L8.29389 17.0181C8.64889 17.3221 9.01789 17.6091 9.40089 17.8771L15.3939 22.0721Z" fill="#EF9645"/>
<path d="M28.7683 13.4931L17.4663 5.34206L17.4073 5.26206L17.4603 5.18206L17.5133 5.12906L18.3673 5.59806C19.3253 6.21806 21.5143 7.13406 23.1733 7.13406C24.3083 7.13406 24.9883 6.70906 25.1913 5.87706C25.253 5.50929 25.1664 5.13205 24.9505 4.82801C24.7345 4.52397 24.4069 4.31794 24.0393 4.25506C23.0358 4.10529 22.0787 3.73249 21.2383 3.16406L20.6833 2.79106C20.0593 2.37006 19.3523 1.89306 18.8303 1.58506C18.1803 1.19106 17.4733 1.00006 16.6673 1.00006C15.4713 1.00006 14.2563 1.42206 13.0823 1.83006L11.8163 2.26606C11.27 2.45014 10.6968 2.54173 10.1203 2.53706C8.57628 2.53706 7.06528 1.95106 5.60428 1.38506L5.45728 1.32706C5.15659 1.21191 4.82523 1.20481 4.51988 1.30695C4.21453 1.4091 3.95415 1.61416 3.78328 1.88706L0.316278 7.41006C0.139765 7.6853 0.068571 8.01502 0.11579 8.33857C0.163009 8.66213 0.325465 8.95775 0.573278 9.17106L8.35828 15.8431C8.71028 16.1441 9.08028 16.4311 9.45828 16.6951L15.6233 21.0111C15.8384 21.1618 16.0812 21.2687 16.3376 21.3256C16.5941 21.3825 16.8593 21.3883 17.118 21.3427C17.3767 21.2971 17.6239 21.201 17.8455 21.0598C18.067 20.9187 18.2586 20.7353 18.4093 20.5201C18.5305 20.346 18.5779 20.1311 18.5412 19.9221C18.5045 19.7132 18.3866 19.5273 18.2133 19.4051L16.3803 18.1221C16.3324 18.0884 16.292 18.0451 16.2616 17.995C16.2312 17.9449 16.2116 17.8891 16.2039 17.831C16.1962 17.773 16.2006 17.7139 16.2168 17.6577C16.2331 17.6014 16.2608 17.5491 16.2983 17.5041C16.3661 17.4227 16.4621 17.3698 16.5671 17.3559C16.6722 17.342 16.7786 17.3681 16.8653 17.4291L20.8443 20.2141C21.1485 20.427 21.5248 20.5104 21.8905 20.4459C22.2562 20.3814 22.5813 20.1743 22.7943 19.8701C23.0072 19.5659 23.0906 19.1895 23.0261 18.8238C22.9616 18.4581 22.7545 18.133 22.4503 17.9201L18.7263 15.3141C18.6784 15.2804 18.638 15.2371 18.6076 15.187C18.5772 15.1369 18.5576 15.0811 18.5499 15.023C18.5422 14.965 18.5466 14.9059 18.5628 14.8497C18.5791 14.7934 18.6068 14.7411 18.6443 14.6961C18.7122 14.6149 18.8082 14.5621 18.9132 14.5482C19.0182 14.5343 19.1245 14.5603 19.2113 14.6211L24.3433 18.2141C24.4939 18.3195 24.6638 18.3943 24.8433 18.434C25.0229 18.4738 25.2084 18.4779 25.3895 18.4459C25.5706 18.414 25.7436 18.3467 25.8987 18.2479C26.0537 18.1491 26.1878 18.0207 26.2933 17.8701C26.3987 17.7194 26.4735 17.5495 26.5133 17.37C26.553 17.1905 26.5571 17.0049 26.5251 16.8238C26.4932 16.6427 26.4259 16.4697 26.3271 16.3147C26.2283 16.1596 26.0999 16.0255 25.9493 15.9201L21.0813 12.5131C21.0329 12.4797 20.9922 12.4365 20.9615 12.3864C20.9309 12.3363 20.9111 12.2803 20.9035 12.2221C20.8959 12.1638 20.9006 12.1046 20.9172 12.0483C20.9339 11.992 20.9622 11.9398 21.0003 11.8951C21.061 11.8226 21.1467 11.7757 21.2404 11.7634C21.3341 11.7512 21.429 11.7746 21.5063 11.8291L27.1623 15.7881C27.313 15.8935 27.483 15.9683 27.6625 16.008C27.8421 16.0478 28.0278 16.0518 28.2089 16.0198C28.39 15.9878 28.563 15.9204 28.7181 15.8216C28.8732 15.7227 29.0073 15.5943 29.1128 15.4436C29.2182 15.2929 29.293 15.1229 29.3327 14.9433C29.3725 14.7637 29.3765 14.5781 29.3445 14.397C29.3125 14.2158 29.2451 14.0428 29.1463 13.8877C29.0474 13.7326 28.919 13.5985 28.7683 13.4931Z" fill="#FFDC5D"/>
<path d="M15.5021 19.67C15.4321 19.937 15.2951 20.168 15.1131 20.351L14.1091 21.347C13.9252 21.5331 13.6957 21.6675 13.4435 21.737C13.1913 21.8065 12.9253 21.8086 12.6721 21.743C12.4164 21.6765 12.1829 21.5436 11.9951 21.3578C11.8073 21.172 11.6719 20.9399 11.6026 20.685C11.5332 20.4301 11.5325 20.1614 11.6004 19.906C11.6682 19.6507 11.8023 19.4179 11.9891 19.231L12.9931 18.235C13.177 18.049 13.4065 17.9145 13.6587 17.845C13.9108 17.7755 14.1769 17.7735 14.4301 17.839C14.8148 17.9401 15.1437 18.1896 15.3447 18.5329C15.5457 18.8761 15.6023 19.2851 15.5021 19.67ZM4.95808 14.749L6.46108 13.252C6.63294 13.0804 6.76054 12.8696 6.83292 12.6377C6.90531 12.4059 6.92031 12.1599 6.87663 11.921C6.83296 11.6821 6.73192 11.4573 6.58219 11.2661C6.43247 11.0748 6.23854 10.9228 6.01708 10.823C5.73965 10.6983 5.43076 10.6611 5.13164 10.7165C4.83253 10.7719 4.55743 10.9172 4.34308 11.133L2.84008 12.63C2.66826 12.8017 2.54071 13.0126 2.46839 13.2445C2.39608 13.4764 2.38117 13.7224 2.42495 13.9613C2.46872 14.2003 2.56987 14.425 2.7197 14.6162C2.86952 14.8074 3.06354 14.9594 3.28508 15.059C3.56242 15.1834 3.87107 15.2204 4.16994 15.165C4.46882 15.1097 4.74373 14.9645 4.95808 14.749ZM10.1621 14.801C10.3093 14.6636 10.4274 14.4979 10.5092 14.3138C10.591 14.1297 10.6349 13.931 10.6382 13.7296C10.6416 13.5282 10.6044 13.3282 10.5287 13.1415C10.4531 12.9548 10.3407 12.7852 10.1981 12.6429C10.0555 12.5006 9.88577 12.3885 9.69892 12.3132C9.51207 12.238 9.31198 12.2011 9.11058 12.2049C8.90918 12.2086 8.7106 12.2529 8.52668 12.335C8.34276 12.4172 8.17727 12.5355 8.04008 12.683L5.03808 15.681C4.89084 15.8185 4.77279 15.9842 4.69099 16.1683C4.60918 16.3524 4.56528 16.551 4.56192 16.7524C4.55856 16.9538 4.5958 17.1539 4.67142 17.3406C4.74704 17.5273 4.85948 17.6968 5.00205 17.8391C5.14463 17.9814 5.3144 18.0936 5.50124 18.1688C5.68809 18.2441 5.88818 18.281 6.08958 18.2772C6.29098 18.2735 6.48956 18.2292 6.67349 18.147C6.85741 18.0649 7.0229 17.9465 7.16008 17.799L10.1621 14.801ZM12.4121 17.801C12.6145 17.5982 12.7546 17.3416 12.8158 17.0616C12.8769 16.7816 12.8566 16.4899 12.7572 16.2211C12.6578 15.9523 12.4834 15.7177 12.2548 15.5448C12.0262 15.372 11.7528 15.2683 11.4671 15.246C11.2513 15.2297 11.0346 15.2607 10.8321 15.3367C10.6295 15.4127 10.4459 15.5319 10.2941 15.686L8.28908 17.681C8.08633 17.8839 7.94597 18.1405 7.88463 18.4207C7.8233 18.7008 7.84355 18.9927 7.943 19.2617C8.04245 19.5307 8.21692 19.7655 8.44575 19.9384C8.67457 20.1112 8.94816 20.2149 9.23408 20.237C9.68908 20.273 10.1081 20.096 10.4071 19.797L12.4121 17.801ZM28.9671 13.664L29.5941 13.122L22.6811 2.27203L10.4111 4.25703C10.2159 4.28999 10.0292 4.36106 9.86151 4.46619C9.69383 4.57132 9.5485 4.70845 9.43382 4.86975C9.31914 5.03104 9.23735 5.21335 9.19313 5.40625C9.14891 5.59916 9.14311 5.79889 9.17608 5.99403C9.83408 8.68903 15.1791 6.68703 17.5311 5.39303L28.9671 13.664Z" fill="#EF9645"/>
<path d="M15.5021 18.67C15.4321 18.937 15.2951 19.168 15.1131 19.351L14.1091 20.347C13.9252 20.5331 13.6957 20.6675 13.4435 20.737C13.1913 20.8065 12.9253 20.8086 12.6721 20.743C12.4164 20.6765 12.1829 20.5436 11.9951 20.3578C11.8073 20.172 11.6719 19.9399 11.6026 19.685C11.5332 19.4301 11.5325 19.1614 11.6004 18.906C11.6682 18.6507 11.8023 18.4179 11.9891 18.231L12.9931 17.235C13.177 17.049 13.4065 16.9145 13.6587 16.845C13.9108 16.7755 14.1769 16.7735 14.4301 16.839C14.8148 16.9401 15.1437 17.1896 15.3447 17.5329C15.5457 17.8761 15.6023 18.2851 15.5021 18.67ZM4.95808 13.749L6.46108 12.252C6.63294 12.0804 6.76054 11.8696 6.83292 11.6377C6.90531 11.4059 6.92031 11.1599 6.87663 10.921C6.83296 10.6821 6.73192 10.4573 6.58219 10.2661C6.43247 10.0748 6.23854 9.92278 6.01708 9.82303C5.73959 9.69854 5.43077 9.66152 5.13172 9.7169C4.83268 9.77228 4.55759 9.91743 4.34308 10.133L2.84008 11.63C2.66826 11.8017 2.54071 12.0126 2.46839 12.2445C2.39608 12.4764 2.38117 12.7224 2.42495 12.9613C2.46872 13.2003 2.56987 13.425 2.7197 13.6162C2.86952 13.8074 3.06354 13.9594 3.28508 14.059C3.56242 14.1834 3.87107 14.2204 4.16994 14.165C4.46882 14.1097 4.74373 13.9645 4.95808 13.749ZM10.1621 13.801C10.3093 13.6636 10.4274 13.4979 10.5092 13.3138C10.591 13.1297 10.6349 12.931 10.6382 12.7296C10.6416 12.5282 10.6044 12.3282 10.5287 12.1415C10.4531 11.9548 10.3407 11.7852 10.1981 11.6429C10.0555 11.5006 9.88577 11.3885 9.69892 11.3132C9.51207 11.238 9.31198 11.2011 9.11058 11.2049C8.90918 11.2086 8.7106 11.2529 8.52668 11.335C8.34276 11.4172 8.17727 11.5355 8.04008 11.683L5.03808 14.681C4.89084 14.8185 4.77279 14.9842 4.69099 15.1683C4.60918 15.3524 4.56528 15.551 4.56192 15.7524C4.55856 15.9538 4.5958 16.1539 4.67142 16.3406C4.74704 16.5273 4.85948 16.6968 5.00205 16.8391C5.14463 16.9814 5.3144 17.0936 5.50124 17.1688C5.68809 17.2441 5.88818 17.281 6.08958 17.2772C6.29098 17.2735 6.48956 17.2292 6.67349 17.147C6.85741 17.0649 7.0229 16.9465 7.16008 16.799L10.1621 13.801ZM12.4121 16.801C12.6145 16.5982 12.7546 16.3416 12.8158 16.0616C12.8769 15.7816 12.8566 15.4899 12.7572 15.2211C12.6578 14.9523 12.4834 14.7177 12.2548 14.5448C12.0262 14.372 11.7528 14.2683 11.4671 14.246C11.2513 14.2297 11.0346 14.2607 10.8321 14.3367C10.6295 14.4127 10.4459 14.5319 10.2941 14.686L8.28908 16.681C8.08633 16.8839 7.94597 17.1405 7.88463 17.4207C7.8233 17.7008 7.84355 17.9927 7.943 18.2617C8.04245 18.5307 8.21692 18.7655 8.44575 18.9384C8.67457 19.1112 8.94816 19.2149 9.23408 19.237C9.68908 19.273 10.1081 19.096 10.4071 18.797L12.4121 16.801ZM33.9691 9.34503C34.2338 9.11619 34.4069 8.79932 34.4563 8.45288C34.5058 8.10643 34.4283 7.7538 34.2381 7.46003L34.2351 7.45503L30.7681 0.934033C30.585 0.641513 30.306 0.421716 29.9787 0.312262C29.6514 0.202809 29.2963 0.210506 28.9741 0.334034C26.9821 1.10503 24.8001 1.99103 22.6821 1.27103L21.5841 0.894033C19.6361 0.219033 17.5181 -0.571966 15.5841 0.600034C14.8891 1.00903 13.8461 1.73303 13.1731 2.18003C12.3416 2.73533 11.3991 3.10253 10.4111 3.25603C10.2156 3.28837 10.0285 3.35905 9.86052 3.46399C9.6925 3.56894 9.54691 3.70609 9.43212 3.86754C9.31733 4.02899 9.23561 4.21155 9.19167 4.40471C9.14773 4.59787 9.14243 4.79782 9.17608 4.99303C9.78908 7.50503 14.4761 5.90103 17.0141 4.62403C17.1725 4.54449 17.3497 4.50998 17.5264 4.52427C17.7031 4.53855 17.8725 4.60108 18.0161 4.70503L29.6001 13.121L33.9691 9.34503Z" fill="#FFCC4D"/>
</svg>
