<svg width="35" height="35" viewBox="0 0 35 35" fill="none" xmlns="http://www.w3.org/2000/svg">
<path d="M29.4569 33.6985C27.8939 35.2615 25.3619 35.2605 23.8009 33.6985L1.17188 11.0705C-0.390125 9.5085 -0.391125 6.9765 1.17188 5.4135L5.41488 1.1715C6.97688 -0.3905 9.50987 -0.3905 11.0719 1.1715L33.6979 23.7995C35.2599 25.3615 35.2599 27.8955 33.6989 29.4555L29.4569 33.6985Z" fill="#FFCC4D"/>
<path d="M8.95064 6.12147C8.55964 6.51147 7.92764 6.51147 7.53664 6.12147C7.14664 5.73047 7.14664 5.09747 7.53664 4.70647L11.0726 1.17047L12.4866 2.58547L8.95064 6.12147ZM14.6066 7.53547C14.2166 7.92647 13.5826 7.92647 13.1926 7.53547C12.8016 7.14447 12.8016 6.51147 13.1926 6.12147L14.6076 4.70647L16.0216 6.12147L14.6066 7.53547ZM16.0216 13.1915C15.6306 13.5825 14.9976 13.5825 14.6076 13.1915C14.2176 12.8005 14.2176 12.1675 14.6076 11.7775L18.1436 8.24147C18.6296 8.72747 19.0726 9.16947 19.5576 9.65647L16.0216 13.1915ZM21.6776 14.6055C21.2876 14.9965 20.6546 14.9965 20.2646 14.6055C19.8726 14.2145 19.8736 13.5815 20.2646 13.1915L21.6786 11.7765C22.1636 12.2635 22.6066 12.7045 23.0926 13.1915L21.6776 14.6055ZM23.0926 20.2625C22.7016 20.6535 22.0696 20.6545 21.6786 20.2625C21.2876 19.8715 21.2876 19.2395 21.6776 18.8485L25.2136 15.3135L26.6276 16.7275L23.0926 20.2625ZM30.1636 27.3335C29.7736 27.7245 29.1406 27.7245 28.7506 27.3335C28.3586 26.9425 28.3586 26.3105 28.7496 25.9195L32.2856 22.3845L33.6996 23.7985L30.1636 27.3335ZM28.7486 21.6765C28.3576 22.0675 27.7266 22.0675 27.3346 21.6775C26.9436 21.2865 26.9446 20.6535 27.3346 20.2635L28.7496 18.8495L30.1626 20.2625L28.7486 21.6765Z" fill="#292F33"/>
</svg>
