<svg width="35" height="29" viewBox="0 0 35 29" fill="none" xmlns="http://www.w3.org/2000/svg">
<path d="M29.3208 22.7592C29.3238 23.0422 29.2508 23.4122 29.1748 23.7172C28.6438 25.8622 26.2858 28.2692 22.9668 28.0502C19.9588 27.8522 17.5088 26.4082 17.5088 24.3832C17.5088 22.3582 19.9528 20.7162 22.9668 20.7162C25.9808 20.7162 29.3018 20.7342 29.3208 22.7592Z" fill="#EA596E"/>
<path d="M22.9668 21.0562C21.3478 21.0562 17.6528 21.5042 16.8048 21.5042C15.3068 21.5042 14.0918 22.4442 14.0918 23.6042C14.0918 24.1622 14.3778 24.6662 14.8358 25.0422C14.8358 25.0422 15.8418 26.0512 17.6538 25.5672C18.4468 25.3552 19.7368 23.7812 22.0078 23.5312C23.1388 23.4062 25.2578 24.2812 28.9818 24.3022C29.1418 23.9582 29.1748 23.7192 29.1748 23.7192C29.1748 21.6922 25.9808 21.0562 22.9668 21.0562Z" fill="#DD2E44"/>
<path d="M29.1748 23.7172C29.1748 23.7172 31.3588 23.2742 32.7168 21.4882C34.2998 19.4052 34.0918 17.1762 34.0918 17.1762C35.6958 14.1762 33.5918 11.3632 33.5918 11.3632C33.3828 8.19621 31.4248 6.88421 31.4248 6.88421C30.1538 3.86321 27.3418 3.05121 27.3418 3.05121C25.1338 0.468207 21.2168 0.551207 21.2168 0.551207C21.2168 0.551207 17.5468 -0.793793 12.5088 0.718207C11.6758 0.968207 8.88381 1.55121 6.84181 2.80121C0.40581 6.74121 -0.0811903 12.8852 0.00880973 13.8842C0.50781 19.4672 4.42481 20.4672 6.92481 21.0502C7.50781 22.6332 9.65381 25.5502 13.5078 24.4672C18.2578 23.6342 20.2578 22.2172 21.4248 22.2172C22.5918 22.2172 25.8418 23.4672 29.1748 23.7172Z" fill="#F4ABBA"/>
<path d="M17.162 14.7402C19.49 13.4852 20.752 13.6022 21.866 13.7032C22.22 13.7352 22.555 13.7602 22.894 13.7582C24.878 13.7132 26.485 12.8772 27.196 12.0682C27.378 11.8602 27.357 11.5452 27.15 11.3622C26.944 11.1802 26.629 11.1992 26.444 11.4072C25.896 12.0312 24.545 12.7202 22.871 12.7582C22.571 12.7672 22.27 12.7372 21.958 12.7082C20.763 12.5972 19.279 12.4612 16.687 13.8602C16.022 14.2192 15.11 14.3522 14.122 14.4522C11.925 11.2812 13.247 8.51918 13.625 7.86118C13.662 7.86318 13.698 7.87518 13.736 7.87518C14.136 7.87518 14.538 7.77718 14.902 7.57118C15.142 7.43518 15.227 7.13018 15.091 6.89018C14.955 6.65018 14.65 6.56518 14.41 6.70118C13.77 7.06318 12.928 6.85418 12.53 6.23418C12.381 6.00118 12.072 5.93318 11.84 6.08318C11.608 6.23218 11.54 6.54118 11.689 6.77318C11.926 7.14418 12.26 7.42318 12.637 7.61018C12.116 8.66818 11.127 11.4502 13.009 14.5612C11.685 14.6912 10.359 14.8782 9.32096 15.5472C8.65096 15.9792 7.96596 16.6112 7.44296 17.3382C6.81396 17.2302 4.51096 16.6632 4.10896 14.1072C4.35896 13.9132 4.56096 13.6572 4.68596 13.3412C4.78796 13.0842 4.66196 12.7942 4.40496 12.6922C4.14796 12.5902 3.85796 12.7162 3.75596 12.9732C3.66696 13.1982 3.50596 13.3622 3.30196 13.4342C3.09996 13.5062 2.87096 13.4822 2.65896 13.3642C2.41596 13.2292 2.11296 13.3182 1.97896 13.5582C1.84496 13.7992 1.93196 14.1042 2.17296 14.2382C2.45696 14.3962 2.76096 14.4762 3.06296 14.4762C3.09996 14.4762 3.13496 14.4592 3.17196 14.4572C3.64796 16.8702 5.55496 17.9302 6.90396 18.2512C6.72796 18.6392 6.60896 19.0392 6.57296 19.4432C6.54896 19.7172 6.75196 19.9612 7.02696 19.9852L7.07196 19.9872C7.32796 19.9872 7.54696 19.7922 7.56996 19.5312C7.67796 18.3182 8.83496 17.0512 9.86296 16.3862C10.827 15.7652 12.238 15.6342 13.604 15.5072C14.929 15.3862 16.181 15.2702 17.162 14.7402ZM30.028 13.2362C29.897 13.4782 29.987 13.7822 30.228 13.9132C30.304 13.9552 30.387 13.9752 30.468 13.9752C30.644 13.9752 30.815 13.8822 30.906 13.7162C30.925 13.6822 32.748 10.2672 29.335 7.97218C29.107 7.82018 28.796 7.87918 28.641 8.10818C28.487 8.33718 28.548 8.64818 28.777 8.80218C31.421 10.5802 30.086 13.1282 30.028 13.2362ZM9.30096 5.16218C9.45696 5.16218 9.60996 5.09018 9.70696 4.95418C11.157 2.93718 13.165 3.62718 13.25 3.65918C13.509 3.75318 13.794 3.62118 13.89 3.36318C13.986 3.10418 13.854 2.81718 13.595 2.72118C12.635 2.36518 10.418 2.25318 8.89496 4.37118C8.73396 4.59418 8.78496 4.90718 9.00896 5.06818C9.09796 5.13218 9.19996 5.16218 9.30096 5.16218ZM22.373 3.27418C24.598 3.09318 25.61 4.70618 25.656 4.78218C25.75 4.94018 25.916 5.02818 26.087 5.02818C26.173 5.02818 26.261 5.00618 26.34 4.95918C26.578 4.81918 26.658 4.51318 26.519 4.27518C26.465 4.18418 25.179 2.05718 22.295 2.27718C22.02 2.29818 21.815 2.53918 21.836 2.81518C21.858 3.09018 22.107 3.29918 22.373 3.27418ZM31.523 17.8852C31.277 17.8712 31.006 18.0662 30.984 18.3422C30.982 18.3602 30.823 20.0612 29.074 20.6362C28.812 20.7222 28.669 21.0042 28.756 21.2672C28.824 21.4772 29.021 21.6112 29.231 21.6112C29.283 21.6112 29.335 21.6032 29.387 21.5862C31.759 20.8082 31.973 18.5222 31.981 18.4252C32.002 18.1492 31.798 17.9072 31.523 17.8852Z" fill="#EA596E"/>
<path d="M6.77164 13.0262C6.69964 13.2932 6.85764 13.5672 7.12464 13.6392C7.16764 13.6512 7.21164 13.6562 7.25464 13.6562C7.47564 13.6562 7.67664 13.5092 7.73664 13.2862C7.92664 12.5752 8.66364 12.1192 9.38864 12.2722C9.65964 12.3272 9.92364 12.1562 9.98064 11.8852C10.0376 11.6152 9.86464 11.3502 9.59364 11.2932C9.16764 11.2032 8.73964 11.2452 8.34564 11.3792C7.17964 9.38517 7.40664 7.41917 7.40964 7.39817C7.44564 7.12517 7.25364 6.87417 6.98064 6.83617C6.70864 6.80317 6.45664 6.99017 6.41864 7.26317C6.40564 7.36017 6.13864 9.57917 7.48164 11.8772C7.14764 12.1782 6.89364 12.5712 6.77164 13.0262ZM17.9506 10.5562C18.3576 10.1792 19.0106 10.1862 19.4056 10.5712C19.5036 10.6652 19.6286 10.7122 19.7546 10.7122C19.8856 10.7122 20.0156 10.6612 20.1126 10.5602C20.3046 10.3622 20.3006 10.0452 20.1026 9.85317C19.8726 9.63017 19.5976 9.48117 19.3056 9.38817C19.6016 8.37217 19.4846 7.92117 19.2096 7.07617C19.1616 6.92917 19.1086 6.76517 19.0526 6.57817L19.0226 6.47817C18.6586 5.27017 18.4176 4.47317 19.1096 3.34817C19.2546 3.11317 19.1806 2.80517 18.9456 2.66017C18.7146 2.51617 18.4036 2.58717 18.2576 2.82417C17.3296 4.33217 17.6706 5.46117 18.0656 6.76817L18.0956 6.86817C18.1546 7.06217 18.2086 7.23217 18.2586 7.38517C18.5056 8.14617 18.5806 8.40117 18.2786 9.32117C17.9096 9.39017 17.5566 9.55717 17.2686 9.82517C17.0666 10.0132 17.0556 10.3302 17.2436 10.5322C17.4326 10.7342 17.7496 10.7442 17.9506 10.5562ZM24.3156 7.57117C24.6066 7.57117 24.9006 7.51017 25.1746 7.38017C25.4246 7.26217 25.5316 6.96417 25.4136 6.71417C25.2966 6.46417 24.9946 6.36017 24.7486 6.47517C24.2466 6.71117 23.6276 6.50617 23.3646 6.01817C23.2336 5.77417 22.9286 5.68517 22.6876 5.81317C22.4446 5.94317 22.3526 6.24717 22.4836 6.49017C22.6636 6.82617 22.9316 7.09117 23.2436 7.27517C22.7066 8.58017 23.0116 9.96617 23.2606 10.7012C23.3306 10.9102 23.5256 11.0412 23.7346 11.0412C23.7876 11.0412 23.8406 11.0332 23.8946 11.0152C24.1566 10.9272 24.2966 10.6432 24.2076 10.3822C24.0396 9.88417 23.7136 8.62617 24.2056 7.55617C24.2436 7.55817 24.2786 7.57117 24.3156 7.57117ZM29.1126 17.0002C29.0936 16.7252 28.8556 16.5082 28.5816 16.5332C27.5676 16.6052 26.7036 15.8362 26.6346 14.8302C26.6146 14.5552 26.3696 14.3502 26.1016 14.3652C25.8266 14.3842 25.6186 14.6232 25.6366 14.8982C25.6776 15.4882 25.9026 16.0202 26.2446 16.4532C25.4406 17.3992 24.3876 17.6682 23.8006 17.7372C23.2816 17.7992 22.8276 17.7462 22.3026 17.6842C21.8216 17.6292 21.2776 17.5662 20.6046 17.5862L20.5996 17.5872C20.5796 17.3012 20.5116 16.8842 20.2946 16.5372C20.1486 16.3042 19.8396 16.2332 19.6056 16.3792C19.3726 16.5252 19.3006 16.8342 19.4476 17.0682C19.5816 17.2832 19.6066 17.6262 19.6066 17.7932C19.1026 17.9742 18.6666 18.2402 18.2726 18.4972C17.5686 18.9552 17.0136 19.3172 16.1786 19.1292C15.4226 18.9562 14.6656 18.9212 14.0236 19.0112C13.9236 18.7602 13.7656 18.4602 13.5216 18.2292C13.3206 18.0392 13.0046 18.0472 12.8146 18.2492C12.6256 18.4492 12.6336 18.7662 12.8346 18.9562C12.9206 19.0372 12.9886 19.1552 13.0436 19.2732C11.9406 19.7272 11.3876 20.4862 11.3616 20.5232C11.2016 20.7472 11.2546 21.0562 11.4766 21.2172C11.5646 21.2802 11.6666 21.3112 11.7686 21.3112C11.9236 21.3112 12.0766 21.2402 12.1746 21.1062C12.1796 21.0982 12.7286 20.3632 13.8116 20.0662C14.3716 19.9122 15.1746 19.9252 15.9576 20.1032C16.1766 20.1532 16.3796 20.1702 16.5766 20.1732C16.6696 20.3912 16.7056 20.6502 16.7106 20.7462C16.7266 21.0122 16.9466 21.2182 17.2096 21.2182L17.2366 21.2172C17.5116 21.2022 17.7226 20.9692 17.7096 20.6942C17.7066 20.6442 17.6866 20.3482 17.5796 20.0082C18.0406 19.8412 18.4416 19.5802 18.8186 19.3352C19.3906 18.9622 19.9316 18.6092 20.6386 18.5862C21.2306 18.5652 21.7186 18.6222 22.1896 18.6772C22.6636 18.7322 23.1296 18.7682 23.6436 18.7382C23.7346 18.9912 23.7276 19.3292 23.7136 19.4422C23.6806 19.7152 23.8736 19.9652 24.1476 20.0012C24.1686 20.0042 24.1896 20.0052 24.2106 20.0052C24.4576 20.0052 24.6726 19.8222 24.7056 19.5702C24.7136 19.5082 24.7646 19.0582 24.6466 18.5892C25.3646 18.3962 26.2546 17.9772 26.9916 17.1182C27.4226 17.3822 27.9256 17.5372 28.4606 17.5372C28.5226 17.5372 28.5856 17.5352 28.6476 17.5312C28.9226 17.5132 29.1306 17.2762 29.1126 17.0002Z" fill="#EA596E"/>
</svg>
