<svg width="28" height="36" viewBox="0 0 28 36" fill="none" xmlns="http://www.w3.org/2000/svg">
<path d="M28 34C28 35.104 27.104 36 26 36H2C0.896 36 0 35.104 0 34V7C0 5.896 0.896 5 2 5H26C27.104 5 28 5.896 28 7V34Z" fill="#8A3820"/>
<path d="M25 32C25 32.553 24.553 33 24 33H4C3.448 33 3 32.553 3 32V9C3 8.448 3.448 8 4 8H24C24.553 8 25 8.448 25 9V32Z" fill="white"/>
<path d="M21 3H17C17 1.343 15.657 0 14 0C12.343 0 11 1.343 11 3H7C5.896 3 5 3.896 5 5V10H23V5C23 3.896 22.104 3 21 3Z" fill="#CCD6DD"/>
<path d="M14 5C15.1046 5 16 4.10457 16 3C16 1.89543 15.1046 1 14 1C12.8954 1 12 1.89543 12 3C12 4.10457 12.8954 5 14 5Z" fill="#292F33"/>
<path d="M16 14C16 14.552 15.553 15 15 15H6C5.448 15 5 14.552 5 14C5 13.448 5.448 13 6 13H15C15.553 13 16 13.448 16 14ZM23 18C23 18.552 22.553 19 22 19H6C5.448 19 5 18.552 5 18C5 17.448 5.448 17 6 17H22C22.553 17 23 17.448 23 18ZM23 22C23 22.553 22.553 23 22 23H6C5.448 23 5 22.553 5 22C5 21.447 5.448 21 6 21H22C22.553 21 23 21.447 23 22ZM23 26C23 26.553 22.553 27 22 27H6C5.448 27 5 26.553 5 26C5 25.447 5.448 25 6 25H22C22.553 25 23 25.447 23 26ZM23 30C23 30.553 22.553 31 22 31H13C12.448 31 12 30.553 12 30C12 29.447 12.448 29 13 29H22C22.553 29 23 29.447 23 30Z" fill="#99AAB5"/>
</svg>
